<svg width="24" height="24" viewBox="0 0 24 24" fill="none" xmlns="http://www.w3.org/2000/svg">
<path d="M2 7C2 5.89543 2.89543 5 4 5H20C21.1046 5 22 5.89543 22 7V7.33333H2V7Z" fill="#FF575B"/>
<path d="M2 7.33333H22V9.66666H2V7.33333Z" fill="#FF8353"/>
<path d="M2 9.66666H22V12H2V9.66666Z" fill="#FABA2C"/>
<path d="M2 12H22V14.3333H2V12Z" fill="#7AC74D"/>
<path d="M2 14.3333H22V16.6666H2V14.3333Z" fill="#00B0FF"/>
<path d="M2 16.6666H22V17C22 18.1045 21.1046 19 20 19H4C2.89543 19 2 18.1045 2 17V16.6666Z" fill="#B99FE4"/>
<path d="M5.02081 5L11.6881 11.6673C11.8833 11.8625 11.8833 12.1791 11.6881 12.3744L5.06244 19H4C2.89543 19 2 18.1046 2 17V7C2 5.89543 2.89543 5 4 5H5.02081Z" fill="black"/>
<path d="M3.19113 5.17032L9.68808 11.6673C9.88334 11.8625 9.88334 12.1791 9.68808 12.3744L3.22018 18.8423C2.50306 18.5383 2 17.8279 2 17V7C2 6.18331 2.48951 5.48095 3.19113 5.17032Z" fill="#5B3A1B"/>
<path d="M2.18328 6.16247L7.68807 11.6673C7.88334 11.8625 7.88334 12.1791 7.68807 12.3744L2.19662 17.8658C2.0706 17.6038 2 17.3102 2 17V7C2 6.70095 2.06563 6.41724 2.18328 6.16247Z" fill="#7CCAF2"/>
<path d="M2 7.97919L5.68807 11.6673C5.88334 11.8625 5.88334 12.1791 5.68807 12.3744L2 16.0624V7.97919Z" fill="#D99FC8"/>
<path d="M2 9.97919L3.68807 11.6673C3.88334 11.8625 3.88334 12.1791 3.68807 12.3744L2 14.0624V9.97919Z" fill="#FEFEFE"/>
</svg>
