<svg width="82" height="62" viewBox="0 0 82 62" fill="none" xmlns="http://www.w3.org/2000/svg">
<path d="M18.4912 51.476C19.8873 55.3118 22.4724 56.5325 26.2716 55.1497L45.7629 48.0555C49.562 46.6727 50.7577 44.0759 49.3615 40.2401L39.2279 12.398C37.8384 8.5805 35.2399 7.3231 31.4408 8.70587L11.9495 15.8001C8.15035 17.1829 6.96804 19.8164 8.35749 23.6339L18.4912 51.476Z" fill="white"/>
<path d="M17.5515 51.818C18.301 53.8774 19.4335 55.4093 21.0533 56.1741C22.6753 56.94 24.568 56.834 26.6136 56.0894L25.9296 54.2101C24.176 54.8483 22.8766 54.8233 21.9072 54.3656C20.9356 53.9068 20.0775 52.9104 19.4309 51.1339L17.5515 51.818ZM26.6136 56.0894L46.1049 48.9952L45.4208 47.1158L25.9296 54.2101L26.6136 56.0894ZM46.1049 48.9952C48.1505 48.2507 49.6686 47.1152 50.4188 45.4859C51.1679 43.8589 51.0508 41.9574 50.3012 39.8981L48.4219 40.5821C49.0684 42.3586 49.0515 43.6734 48.6021 44.6494C48.1537 45.6232 47.1744 46.4776 45.4208 47.1158L46.1049 48.9952ZM50.3012 39.8981L40.1676 12.056L38.2882 12.74L48.4219 40.5821L50.3012 39.8981ZM40.1676 12.056C39.4209 10.0046 38.2871 8.47065 36.6682 7.69911C35.0454 6.92571 33.1489 7.01998 31.0988 7.76618L31.7828 9.64556C33.5318 9.00899 34.8342 9.04057 35.8077 9.50456C36.7852 9.9704 37.6453 10.9739 38.2882 12.74L40.1676 12.056ZM31.0988 7.76618L11.6075 14.8604L12.2915 16.7398L31.7828 9.64556L31.0988 7.76618ZM11.6075 14.8604C9.55731 15.6066 8.04396 16.7534 7.29794 18.389C6.55371 20.0207 6.67117 21.9246 7.4178 23.9759L9.29719 23.2919C8.65436 21.5257 8.66824 20.2041 9.11759 19.219C9.56516 18.2377 10.5425 17.3764 12.2915 16.7398L11.6075 14.8604ZM7.4178 23.9759L17.5515 51.818L19.4309 51.1339L9.29719 23.2919L7.4178 23.9759Z" fill="#555555"/>
<path d="M20.7366 44.9678C21.4454 48.9878 23.7793 50.6388 27.7609 49.9368L48.1879 46.3349C52.1695 45.6329 53.7979 43.2832 53.0891 39.2632L47.9441 10.0844C47.2386 6.08359 44.8979 4.39406 40.9164 5.09612L20.4893 8.69796C16.5078 9.40002 14.8861 11.7882 15.5916 15.789L20.7366 44.9678Z" fill="white"/>
<path d="M19.7518 45.1414C20.1323 47.2997 20.9816 49.005 22.4439 50.0394C23.9083 51.0753 25.7907 51.2996 27.9345 50.9216L27.5872 48.952C25.7494 49.276 24.4741 49.0258 23.599 48.4067C22.7217 47.7861 22.0497 46.6559 21.7214 44.7941L19.7518 45.1414ZM27.9345 50.9216L48.3616 47.3197L48.0143 45.3501L27.5872 48.952L27.9345 50.9216ZM48.3616 47.3197C50.5053 46.9417 52.1975 46.0872 53.2193 44.6129C54.2396 43.1407 54.4544 41.2477 54.0739 39.0895L52.1043 39.4368C52.4325 41.2986 52.1876 42.5905 51.5755 43.4737C50.9648 44.3548 49.852 45.0261 48.0143 45.3501L48.3616 47.3197ZM54.0739 39.0895L48.9289 9.91073L46.9592 10.258L52.1043 39.4368L54.0739 39.0895ZM48.9289 9.91073C48.5498 7.7609 47.6996 6.05332 46.2392 5.01238C44.7753 3.96893 42.8913 3.73246 40.7428 4.11131L41.09 6.08093C42.923 5.75773 44.2001 6.01499 45.0783 6.64099C45.9601 7.26949 46.6329 8.40707 46.9592 10.258L48.9289 9.91073ZM40.7428 4.11131L20.3157 7.71315L20.663 9.68277L41.09 6.08093L40.7428 4.11131ZM20.3157 7.71315C18.1671 8.09201 16.4776 8.95859 15.4589 10.4398C14.4426 11.9174 14.2277 13.8128 14.6068 15.9626L16.5764 15.6153C16.25 13.7644 16.4932 12.4653 17.1068 11.5731C17.7179 10.6845 18.83 10.006 20.663 9.68277L20.3157 7.71315ZM14.6068 15.9626L19.7518 45.1414L21.7214 44.7941L16.5764 15.6153L14.6068 15.9626Z" fill="#555555"/>
<path d="M23.8743 41.0557C23.8743 45.1377 25.886 47.1689 29.929 47.1689H50.6711C54.7141 47.1689 56.7258 45.1377 56.7258 41.0557V11.4268C56.7258 7.36426 54.7141 5.29395 50.6711 5.29395H29.929C25.886 5.29395 23.8743 7.36426 23.8743 11.4268V41.0557Z" fill="white"/>
<path d="M22.8743 41.0557C22.8743 43.2472 23.4145 45.0741 24.675 46.3468C25.9372 47.6212 27.7521 48.1689 29.929 48.1689V46.1689C28.0628 46.1689 26.8504 45.701 26.096 44.9394C25.3399 44.1759 24.8743 42.9462 24.8743 41.0557H22.8743ZM29.929 48.1689H50.6711V46.1689H29.929V48.1689ZM50.6711 48.1689C52.848 48.1689 54.6629 47.6212 55.9251 46.3468C57.1856 45.0741 57.7258 43.2472 57.7258 41.0557H55.7258C55.7258 42.9462 55.2602 44.1759 54.5041 44.9394C53.7497 45.701 52.5373 46.1689 50.6711 46.1689V48.1689ZM57.7258 41.0557V11.4268H55.7258V41.0557H57.7258ZM57.7258 11.4268C57.7258 9.24377 57.185 7.41449 55.9276 6.13577C54.6672 4.85399 52.8529 4.29395 50.6711 4.29395V6.29395C52.5324 6.29395 53.7454 6.76906 54.5016 7.53805C55.2608 8.31012 55.7258 9.54725 55.7258 11.4268H57.7258ZM50.6711 4.29395H29.929V6.29395H50.6711V4.29395ZM29.929 4.29395C27.7472 4.29395 25.9329 4.85399 24.6725 6.13577C23.4151 7.41449 22.8743 9.24377 22.8743 11.4268H24.8743C24.8743 9.54725 25.3393 8.31012 26.0985 7.53805C26.8547 6.76906 28.0677 6.29395 29.929 6.29395V4.29395ZM22.8743 11.4268V41.0557H24.8743V11.4268H22.8743Z" fill="#555555"/>
<path d="M28.6236 39.2316C27.9147 43.2517 29.5432 45.6014 33.5247 46.3034L53.9518 49.9053C57.9333 50.6073 60.2672 48.9563 60.976 44.9363L66.121 15.7575C66.8265 11.7567 65.2048 9.36851 61.2233 8.66645L40.7962 5.06461C36.8147 4.36256 34.474 6.05209 33.7686 10.0529L28.6236 39.2316Z" fill="white"/>
<path d="M27.6387 39.058C27.2582 41.2162 27.473 43.1092 28.4933 44.5814C29.5151 46.0557 31.2073 46.9102 33.3511 47.2882L33.6983 45.3186C31.8606 44.9946 30.7478 44.3232 30.1371 43.4422C29.5251 42.559 29.2801 41.2671 29.6084 39.4053L27.6387 39.058ZM33.3511 47.2882L53.7781 50.8901L54.1254 48.9205L33.6983 45.3186L33.3511 47.2882ZM53.7781 50.8901C55.9219 51.2681 57.8043 51.0438 59.2687 50.0079C60.731 48.9735 61.5803 47.2681 61.9608 45.1099L59.9912 44.7626C59.6629 46.6244 58.9909 47.7546 58.1136 48.3752C57.2385 48.9943 55.9632 49.2445 54.1254 48.9205L53.7781 50.8901ZM61.9608 45.1099L67.1058 15.9311L65.1362 15.5838L59.9912 44.7626L61.9608 45.1099ZM67.1058 15.9311C67.4849 13.7813 67.27 11.8859 66.2537 10.4083C65.235 8.92709 63.5455 8.0605 61.3969 7.68165L61.0496 9.65126C62.8826 9.97446 63.9947 10.653 64.6058 11.5416C65.2194 12.4338 65.4626 13.7329 65.1362 15.5838L67.1058 15.9311ZM61.3969 7.68165L40.9699 4.0798L40.6226 6.04942L61.0496 9.65126L61.3969 7.68165ZM40.9699 4.0798C38.8213 3.70095 36.9373 3.93743 35.4734 4.98087C34.0131 6.02182 33.1628 7.72939 32.7838 9.87922L34.7534 10.2265C35.0797 8.37556 35.7526 7.23798 36.6343 6.60948C37.5125 5.98348 38.7896 5.72622 40.6226 6.04942L40.9699 4.0798ZM32.7838 9.87922L27.6387 39.058L29.6084 39.4053L34.7534 10.2265L32.7838 9.87922Z" fill="#555555"/>
<path d="M32.4203 38.9316C31.0242 42.7675 32.2198 45.3643 36.019 46.7471L55.5103 53.8413C59.3094 55.2241 61.8945 54.0034 63.2907 50.1675L73.4244 22.3255C74.8138 18.508 73.6315 15.8745 69.8324 14.4917L50.3411 7.39744C46.5419 6.01466 43.9435 7.27207 42.554 11.0896L32.4203 38.9316Z" fill="white"/>
<path d="M31.4806 38.5896C30.7311 40.649 30.6139 42.5505 31.3631 44.1775C32.1133 45.8068 33.6314 46.9422 35.677 47.6868L36.361 45.8074C34.6074 45.1691 33.6281 44.3148 33.1798 43.341C32.7303 42.365 32.7134 41.0501 33.36 39.2737L31.4806 38.5896ZM35.677 47.6868L55.1683 54.781L55.8523 52.9016L36.361 45.8074L35.677 47.6868ZM55.1683 54.781C57.2138 55.5255 59.1066 55.6316 60.7286 54.8657C62.3483 54.1009 63.4808 52.5689 64.2304 50.5096L62.351 49.8255C61.7044 51.602 60.8463 52.5983 59.8746 53.0571C58.9052 53.5149 57.6059 53.5399 55.8523 52.9016L55.1683 54.781ZM64.2304 50.5096L74.3641 22.6675L72.4847 21.9834L62.351 49.8255L64.2304 50.5096ZM74.3641 22.6675C75.1107 20.6161 75.2281 18.7122 74.4839 17.0806C73.7379 15.445 72.2245 14.2982 70.1744 13.552L69.4903 15.4314C71.2393 16.068 72.2167 16.9293 72.6643 17.9105C73.1136 18.8957 73.1275 20.2173 72.4847 21.9834L74.3641 22.6675ZM70.1744 13.552L50.6831 6.45774L49.9991 8.33713L69.4903 15.4314L70.1744 13.552ZM50.6831 6.45774C48.6329 5.71155 46.7365 5.61728 45.1137 6.39068C43.4948 7.16222 42.3609 8.69621 41.6143 10.7476L43.4937 11.4316C44.1365 9.66543 44.9967 8.66197 45.9741 8.19612C46.9477 7.73213 48.2501 7.70055 49.9991 8.33713L50.6831 6.45774ZM41.6143 10.7476L31.4806 38.5896L33.36 39.2737L43.4937 11.4316L41.6143 10.7476Z" fill="#555555"/>
</svg>
