<svg width="37" height="37" viewBox="0 0 37 37" fill="none" xmlns="http://www.w3.org/2000/svg">
<path fill-rule="evenodd" clip-rule="evenodd" d="M14.625 14.4604L31.625 10.2104V20.9416C30.647 19.9245 29.2724 19.2915 27.75 19.2915C24.7815 19.2915 22.375 21.698 22.375 24.6665C22.375 27.635 24.7815 30.0415 27.75 30.0415C30.7185 30.0415 33.125 27.635 33.125 24.6665V9.24985V7.12351V7.08931C33.125 6.42867 33.125 5.8837 33.0865 5.44631C33.0467 4.99553 32.9607 4.57273 32.7329 4.19318C32.3892 3.62048 31.8487 3.19246 31.2125 2.98903C30.7909 2.85421 30.3596 2.86733 29.9117 2.93189C29.4772 2.99453 28.9467 3.11935 28.3036 3.27067L28.2703 3.27851L16.1703 6.12557L16.1448 6.13158C15.7259 6.23012 15.3729 6.31317 15.0853 6.40337C14.7828 6.49823 14.5046 6.61483 14.2482 6.80295C13.8497 7.0953 13.5374 7.48961 13.3441 7.94441C13.2197 8.23707 13.17 8.53461 13.1469 8.85078C13.125 9.15142 13.125 9.51404 13.125 9.94431V9.97057V13.8748V25.5666C12.147 24.5495 10.7724 23.9165 9.25 23.9165C6.28147 23.9165 3.875 26.323 3.875 29.2915C3.875 32.26 6.28147 34.6665 9.25 34.6665C12.2185 34.6665 14.625 32.26 14.625 29.2915V14.4604Z" fill="#3A4454"/>
<line x1="5.90577" y1="33.1731" x2="32.1731" y2="5.09423" stroke="white" stroke-width="4" stroke-linecap="round"/>
<line x1="5.97563" y1="33.2933" x2="33.2933" y2="4.02437" stroke="#3A4454" stroke-linecap="round"/>
</svg>
