<svg width="24" height="24" viewBox="0 0 24 24" fill="none" xmlns="http://www.w3.org/2000/svg">
<path fill-rule="evenodd" clip-rule="evenodd" d="M9.75 9.58584L20.25 6.96084V13C19.6233 12.5292 18.8442 12.2503 18 12.2503C15.9289 12.2503 14.25 13.9292 14.25 16.0003C14.25 18.0713 15.9289 19.7503 18 19.7503C20.0711 19.7503 21.75 18.0713 21.75 16.0003V6.00026V5.96694C21.75 5.32412 21.75 4.79383 21.7134 4.36777C21.6757 3.92883 21.5942 3.51662 21.378 3.14433C21.0289 2.54314 20.4649 2.09652 19.7998 1.89433C19.3878 1.76912 18.9679 1.7842 18.532 1.84805C18.1089 1.91002 17.5927 2.03148 16.967 2.17872L16.967 2.17873L16.9345 2.18636L11.2953 3.51324L11.2698 3.51925C10.8509 3.61779 10.4979 3.70084 10.2103 3.79104C9.90781 3.8859 9.62957 4.0025 9.37319 4.19062C8.97475 4.48296 8.66245 4.87727 8.46913 5.33208C8.34474 5.62474 8.29496 5.92228 8.27191 6.23845C8.24998 6.53909 8.24999 6.90172 8.25 7.332V7.35824V9.00026V16C7.62325 15.5292 6.8442 15.2503 6 15.2503C3.92893 15.2503 2.25 16.9292 2.25 19.0003C2.25 21.0713 3.92893 22.7503 6 22.7503C8.07107 22.7503 9.75 21.0713 9.75 19.0003V9.58584Z" fill="#2F384C"/>
</svg>
