<svg width="30" height="58" viewBox="0 0 30 58" fill="none" xmlns="http://www.w3.org/2000/svg">
<path d="M7.99646 20.4836C7.99646 20.4836 10.256 17.5712 8.79468 13.5266C7.3283 9.48445 3.91355 7.94922 3.91355 7.94922C3.91355 7.94922 1.35822 11.4201 2.78635 15.3602C4.21193 19.3028 7.99646 20.4836 7.99646 20.4836Z" fill="white"/>
<path d="M14.2675 22.5521C14.2675 22.5521 18.2178 22.2359 20.4799 18.7038C22.7419 15.1743 21.0129 11.2266 21.0129 11.2266C21.0129 11.2266 17.3457 11.9712 15.0224 15.5951C12.7017 19.2164 14.2675 22.5521 14.2675 22.5521Z" fill="white"/>
<path d="M14.6672 27.2175C12.8387 31.1117 14.8253 34.2178 14.8253 34.2178C14.8253 34.2178 18.7042 33.3865 20.4842 29.5943C22.2617 25.797 20.0328 22.1094 20.0328 22.1094C20.0328 22.1094 16.4957 23.3233 14.6672 27.2175Z" fill="white"/>
<path d="M23.5959 30.3555C23.5959 30.3555 20.1862 31.9009 18.7326 35.9456C17.279 39.9979 19.5461 42.9 19.5461 42.9C19.5461 42.9 23.3255 41.7091 24.7435 37.7639C26.1588 33.8187 23.5959 30.3555 23.5959 30.3555Z" fill="white"/>
<path d="M26.4368 51.6542C26.4368 51.6542 29.7164 49.4227 29.9383 45.2378C30.1576 41.0503 26.7021 38.4746 26.7021 38.4746C26.7021 38.4746 23.8815 40.9356 23.6545 45.2302C23.4301 49.5222 26.4368 51.6542 26.4368 51.6542Z" fill="white"/>
<path d="M13.0328 12.6899C13.0328 12.6899 16.5291 11.5219 17.5543 7.3472C18.5821 3.17248 16.5954 0 16.5954 0C16.5954 0 12.5457 1.46893 11.5434 5.54164C10.5437 9.6118 13.0328 12.6899 13.0328 12.6899Z" fill="white"/>
<path d="M7.99395 29.3606C7.99395 29.3606 9.29201 25.9102 6.70353 22.4801C4.10995 19.0475 0.396824 18.5859 0.396824 18.5859C0.396824 18.5859 -1.0211 22.6561 1.50362 26.002C4.02835 29.3504 7.99395 29.3606 7.99395 29.3606Z" fill="white"/>
<path d="M10.8904 38.4662C10.8904 38.4662 11.3877 34.8143 8.10302 32.0448C4.81323 29.2727 1.0899 29.6501 1.0899 29.6501C1.0899 29.6501 0.61046 33.9345 3.81354 36.6352C7.02173 39.3333 10.8904 38.4662 10.8904 38.4662Z" fill="white"/>
<path d="M15.3024 45.9935C15.3024 45.9935 14.6776 42.362 10.7043 40.7197C6.7285 39.0722 3.2959 40.559 3.2959 40.559C3.2959 40.559 4.13747 44.7873 8.00872 46.3939C11.88 47.9929 15.3024 45.9935 15.3024 45.9935Z" fill="white"/>
<path d="M17.2307 49.1203C13.0892 47.9625 9.85547 49.8471 9.85547 49.8471C9.85547 49.8471 11.1943 53.9428 15.2288 55.0725C19.2684 56.2023 22.4255 53.8076 22.4255 53.8076C22.4255 53.8076 21.3723 50.2755 17.2307 49.1203Z" fill="white"/>
<path d="M13.4647 15.1788L11.6235 14.2734C11.5266 14.4749 2.05502 34.5936 28.6692 57.3442L30.0004 55.786C4.66136 34.1218 13.0924 15.9413 13.4647 15.1788Z" fill="white"/>
</svg>
