<svg width="76" height="64" viewBox="0 0 76 64" fill="none" xmlns="http://www.w3.org/2000/svg">
<path d="M14.8329 53.2431C15.8894 57.186 18.3583 58.6274 22.2635 57.581L42.299 52.2125C46.2042 51.1661 47.6216 48.6834 46.5651 44.7405L38.8966 16.1211C37.8451 12.1971 35.3661 10.718 31.4609 11.7644L11.4255 17.1328C7.52028 18.1792 6.11295 20.6997 7.1644 24.6238L14.8329 53.2431Z" fill="white"/>
<path d="M13.867 53.5019C14.4342 55.6188 15.4289 57.2436 16.9758 58.1466C18.5249 59.051 20.4197 59.1103 22.5224 58.5469L22.0047 56.6151C20.2022 57.098 18.9099 56.9599 17.9841 56.4194C17.0562 55.8777 16.2881 54.8103 15.7988 52.9843L13.867 53.5019ZM22.5224 58.5469L42.5578 53.1784L42.0401 51.2466L22.0047 56.6151L22.5224 58.5469ZM42.5578 53.1784C44.6604 52.615 46.2717 51.6162 47.1611 50.0585C48.0492 48.503 48.0982 46.5985 47.531 44.4817L45.5992 44.9993C46.0885 46.8254 45.957 48.1337 45.4242 49.0669C44.8927 49.9978 43.8427 50.7636 42.0401 51.2466L42.5578 53.1784ZM47.531 44.4817L39.8625 15.8623L37.9306 16.38L45.5992 44.9993L47.531 44.4817ZM39.8625 15.8623C39.2975 13.7537 38.3017 12.1267 36.7562 11.217C35.2069 10.3051 33.3095 10.2338 31.2021 10.7984L31.7197 12.7303C33.5175 12.2486 34.8122 12.3935 35.7416 12.9406C36.6748 13.4899 37.4442 14.5645 37.9306 16.38L39.8625 15.8623ZM31.2021 10.7984L11.1667 16.1669L11.6843 18.0988L31.7197 12.7303L31.2021 10.7984ZM11.1667 16.1669C9.05927 16.7316 7.45173 17.7421 6.566 19.3065C5.6824 20.8671 5.63347 22.774 6.19847 24.8826L8.13032 24.3649C7.64387 22.5495 7.77289 21.2341 8.30639 20.2919C8.83777 19.3534 9.8865 18.5805 11.6843 18.0988L11.1667 16.1669ZM6.19847 24.8826L13.867 53.5019L15.7988 52.9843L8.13032 24.3649L6.19847 24.8826Z" fill="#555555"/>
<path d="M21.8743 44.8105C21.8743 48.8926 23.886 50.9238 27.929 50.9238H48.6711C52.7141 50.9238 54.7258 48.8926 54.7258 44.8105V15.1816C54.7258 11.1191 52.7141 9.04883 48.6711 9.04883H27.929C23.886 9.04883 21.8743 11.1191 21.8743 15.1816V44.8105Z" fill="white"/>
<path d="M20.8743 44.8105C20.8743 47.0021 21.4145 48.829 22.675 50.1016C23.9372 51.3761 25.7521 51.9238 27.929 51.9238V49.9238C26.0628 49.9238 24.8504 49.4559 24.096 48.6943C23.3399 47.9308 22.8743 46.701 22.8743 44.8105H20.8743ZM27.929 51.9238H48.6711V49.9238H27.929V51.9238ZM48.6711 51.9238C50.848 51.9238 52.6629 51.3761 53.9251 50.1016C55.1856 48.829 55.7258 47.0021 55.7258 44.8105H53.7258C53.7258 46.701 53.2602 47.9308 52.5041 48.6943C51.7497 49.4559 50.5373 49.9238 48.6711 49.9238V51.9238ZM55.7258 44.8105V15.1816H53.7258V44.8105H55.7258ZM55.7258 15.1816C55.7258 12.9986 55.185 11.1694 53.9276 9.89066C52.6672 8.60887 50.8529 8.04883 48.6711 8.04883V10.0488C50.5324 10.0488 51.7454 10.5239 52.5016 11.2929C53.2608 12.065 53.7258 13.3021 53.7258 15.1816H55.7258ZM48.6711 8.04883H27.929V10.0488H48.6711V8.04883ZM27.929 8.04883C25.7472 8.04883 23.9329 8.60887 22.6725 9.89066C21.4151 11.1694 20.8743 12.9986 20.8743 15.1816H22.8743C22.8743 13.3021 23.3393 12.065 24.0985 11.2929C24.8547 10.5239 26.0677 10.0488 27.929 10.0488V8.04883ZM20.8743 15.1816V44.8105H22.8743V15.1816H20.8743Z" fill="#555555"/>
<path d="M28.9168 39.4471C27.8603 43.3901 29.2777 45.8728 33.1829 46.9192L53.2183 52.2877C57.1235 53.3341 59.5924 51.8927 60.6489 47.9497L68.3175 19.3304C69.3689 15.4063 67.9616 12.8859 64.0564 11.8395L44.021 6.47104C40.1158 5.42464 37.6368 6.90374 36.5853 10.8278L28.9168 39.4471Z" fill="white"/>
<path d="M27.9509 39.1883C27.3836 41.3052 27.4327 43.2096 28.3208 44.7652C29.2102 46.3229 30.8214 47.3217 32.9241 47.8851L33.4417 45.9533C31.6392 45.4703 30.5892 44.7045 30.0576 43.7735C29.5249 42.8404 29.3934 41.532 29.8827 39.706L27.9509 39.1883ZM32.9241 47.8851L52.9595 53.2536L53.4772 51.3217L33.4417 45.9533L32.9241 47.8851ZM52.9595 53.2536C55.0622 53.817 56.957 53.7577 58.5061 52.8533C60.053 51.9502 61.0477 50.3254 61.6149 48.2086L59.683 47.6909C59.1937 49.517 58.4257 50.5844 57.4977 51.1261C56.5719 51.6666 55.2797 51.8047 53.4772 51.3217L52.9595 53.2536ZM61.6149 48.2086L69.2834 19.5892L67.3515 19.0716L59.683 47.6909L61.6149 48.2086ZM69.2834 19.5892C69.8484 17.4806 69.7995 15.5737 68.9159 14.0131C68.0301 12.4488 66.4226 11.4383 64.3152 10.8736L63.7976 12.8054C65.5954 13.2872 66.6441 14.06 67.1755 14.9985C67.709 15.9408 67.838 17.2561 67.3515 19.0716L69.2834 19.5892ZM64.3152 10.8736L44.2798 5.50511L43.7622 7.43696L63.7976 12.8054L64.3152 10.8736ZM44.2798 5.50511C42.1724 4.94044 40.2749 5.01181 38.7257 5.9237C37.1802 6.83341 36.1844 8.46038 35.6194 10.569L37.5512 11.0866C38.0377 9.27116 38.8071 8.19655 39.7402 7.64729C40.6697 7.10021 41.9643 6.95524 43.7622 7.43696L44.2798 5.50511ZM35.6194 10.569L27.9509 39.1883L29.8827 39.706L37.5512 11.0866L35.6194 10.569Z" fill="#555555"/>
</svg>
