<svg width="34" height="43" viewBox="0 0 34 43" fill="none" xmlns="http://www.w3.org/2000/svg">
<path d="M0.980469 36.7227C0.980469 40.8047 2.99219 42.8359 7.03516 42.8359H27.7773C31.8203 42.8359 33.832 40.8047 33.832 36.7227V7.09375C33.832 3.03125 31.8203 0.960938 27.7773 0.960938H7.03516C2.99219 0.960938 0.980469 3.03125 0.980469 7.09375V36.7227Z" fill="white"/>
<path d="M-0.0195312 36.7227C-0.0195312 38.9142 0.520728 40.7411 1.78119 42.0137C3.04343 43.2882 4.8583 43.8359 7.03516 43.8359V41.8359C5.16904 41.8359 3.95657 41.368 3.20221 40.6064C2.44607 39.8429 1.98047 38.6132 1.98047 36.7227H-0.0195312ZM7.03516 43.8359H27.7773V41.8359H7.03516V43.8359ZM27.7773 43.8359C29.9542 43.8359 31.7691 43.2882 33.0313 42.0137C34.2918 40.7411 34.832 38.9142 34.832 36.7227H32.832C32.832 38.6132 32.3664 39.8429 31.6103 40.6064C30.8559 41.368 29.6435 41.8359 27.7773 41.8359V43.8359ZM34.832 36.7227V7.09375H32.832V36.7227H34.832ZM34.832 7.09375C34.832 4.91076 34.2912 3.08148 33.0338 1.80277C31.7734 0.520978 29.9591 -0.0390625 27.7773 -0.0390625V1.96094C29.6386 1.96094 30.8516 2.43605 31.6078 3.20505C32.367 3.97711 32.832 5.21424 32.832 7.09375H34.832ZM27.7773 -0.0390625H7.03516V1.96094H27.7773V-0.0390625ZM7.03516 -0.0390625C4.85342 -0.0390625 3.0391 0.520978 1.77868 1.80277C0.521271 3.08148 -0.0195312 4.91076 -0.0195312 7.09375H1.98047C1.98047 5.21424 2.44553 3.97711 3.20472 3.20505C3.9609 2.43605 5.17393 1.96094 7.03516 1.96094V-0.0390625ZM-0.0195312 7.09375V36.7227H1.98047V7.09375H-0.0195312Z" fill="#555555"/>
</svg>
